<svg xmlns="http://www.w3.org/2000/svg" viewBox="0 0 96 96" fill="none">
  <defs>
    <linearGradient id="g" x1="18" y1="16" x2="78" y2="82" gradientUnits="userSpaceOnUse">
      <stop stop-color="#06B6D4"/>
      <stop offset="1" stop-color="#2563EB"/>
    </linearGradient>
  </defs>
  <rect x="10" y="10" width="76" height="76" rx="22" fill="url(#g)"/>
  <path d="M36 29C29.925 29 26 33.925 26 40C26 49 32 58 38 66C40 68.667 44 68 46 65L48 62L50 65C52 68 56 68.667 58 66C64 58 70 49 70 40C70 33.925 66.075 29 60 29C55.838 29 52.889 31.211 48 36C43.111 31.211 40.162 29 36 29Z" fill="white"/>
</svg>
