<svg xmlns="http://www.w3.org/2000/svg" viewBox="0 0 96 96" fill="none">
  <defs>
    <linearGradient id="g" x1="16" y1="16" x2="80" y2="80" gradientUnits="userSpaceOnUse">
      <stop stop-color="#2563EB"/>
      <stop offset="1" stop-color="#7C3AED"/>
    </linearGradient>
  </defs>
  <rect x="10" y="10" width="76" height="76" rx="22" fill="url(#g)"/>
  <path d="M32 37C32 33.686 34.686 31 38 31H58C61.314 31 64 33.686 64 37V59C64 62.314 61.314 65 58 65H38C34.686 65 32 62.314 32 59V37Z" fill="white" opacity=".18"/>
  <path d="M38 35H58C59.105 35 60 35.895 60 37V59C60 60.105 59.105 61 58 61H38C36.895 61 36 60.105 36 59V37C36 35.895 36.895 35 38 35Z" stroke="white" stroke-width="4"/>
  <path d="M44 31H52" stroke="white" stroke-width="4" stroke-linecap="round"/>
</svg>
