<svg xmlns="http://www.w3.org/2000/svg" viewBox="0 0 96 96" fill="none">
  <defs>
    <linearGradient id="g" x1="18" y1="18" x2="78" y2="82" gradientUnits="userSpaceOnUse">
      <stop stop-color="#16A34A"/>
      <stop offset="1" stop-color="#84CC16"/>
    </linearGradient>
  </defs>
  <rect x="10" y="10" width="76" height="76" rx="22" fill="url(#g)"/>
  <path d="M34 38H62L59 64H37L34 38Z" fill="white" opacity=".18"/>
  <path d="M34 38H62L59 64H37L34 38Z" stroke="white" stroke-width="4" stroke-linejoin="round"/>
  <path d="M41 39C41 33.477 44.134 30 48 30C51.866 30 55 33.477 55 39" stroke="white" stroke-width="4" stroke-linecap="round"/>
  <path d="M43 51C45 53.5 51 53.5 53 50.5C55.5 47 49 45.5 47 44C44.5 42.5 45 39 48 38.5C50 38.167 51.5 38.833 52.5 40" stroke="white" stroke-width="3.5" stroke-linecap="round" stroke-linejoin="round"/>
</svg>
